<svg xmlns="http://www.w3.org/2000/svg" xml:space="preserve" width="2000" height="1500" data-id="lg_dkOcUZYxXvoVBSm4J4" data-version="1" viewBox="0 0 2000 1500"><path fill="#060606" stroke="transparent" d="M0 0h2000v1500H0z"/><g data-padding="20"><g transform="translate(-1656.53 -1249.13)scale(2.58736)"><rect width="411.899" height="287.698" x="564.454" y="508.814" fill="none" rx="0" ry="0" transform="matrix(.97 0 0 .97 199.62 139.57)"/><g transform="matrix(.97 0 0 .97 204.49 69.982)"><linearGradient id="a" x1="0" x2="1" y1="0" y2="0" gradientUnits="objectBoundingBox"><stop offset="0%" stop-color="#6ee2f5"/><stop offset="100%" stop-color="#6454f0"/></linearGradient><path fill="url(#a)" d="M948.704 770.963v-91.38h22.51q7.37 0 13.47 1.27t10.39 4.29q4.28 3.01 6.56 7.97t2.28 12.46q-.13 8.31-2.81 13.47t-6.57 8.31-8.98 4.62v.27q.54.53 1.68 1.94t1.94 2.48l25.86 34.3h-13.26l-26.54-36.31h-15.27v36.31Zm43.82-63.51q0-5.63-1.41-9.18-1.4-3.55-4.15-5.43-2.75-1.87-6.77-2.54t-9.11-.67h-11.12v34.97h13.26q5.23 0 8.85-1.34t5.89-3.68q2.28-2.35 3.35-5.43 1.08-3.08 1.21-6.7" transform="translate(-211.47 -72.61)"/></g><path fill="url(#a)" d="m1065.284 772.043-.8-8.45h-.27q-1.21.94-3.48 2.48-2.28 1.54-5.23 3.02-2.95 1.47-6.5 2.54-3.55 1.08-7.17 1.08-4.96 0-8.44-1.28-3.48-1.27-5.63-4.22-2.14-2.95-3.08-7.77t-.94-12.06v-43.82h10.72v42.21q0 4.02.14 7.24.13 3.21.93 5.49.81 2.28 2.62 3.55 1.81 1.28 5.16 1.28 3.48 0 7.23-1.48 3.75-1.47 6.84-3.35 3.61-2.14 7.1-4.82v-50.12h10.72v58.69q.13 4.83.67 8.71Z" transform="matrix(.97 0 0 .97 -.637 -.44)"/><path fill="url(#a)" d="M1094.634 770.963v-100.36l10.72-1.21v101.57Zm77.85-10.58 2.01 8.98q-3.08.93-6.36 1.6-3.29.67-7.24 1.21t-8.24.54q-6.7 0-12.46-1.88t-10.05-6.03-6.77-10.79q-2.48-6.63-2.48-16.28 0-8.71 2.41-15.34 2.42-6.63 6.64-11.12t9.91-6.77q5.7-2.28 12.4-2.28 6.56 0 11.39 2.55 4.82 2.54 7.97 6.9 3.15 4.35 4.69 10.18t1.54 12.26l-2.01 5.9h-43.28q0 4.15 1.07 8.31 1.07 4.15 3.69 7.5 2.61 3.35 6.83 5.43t10.52 2.08q4.02 0 7.37-.47t5.83-1.07q2.48-.61 4.62-1.41m-39.53-28.95h33.77q0-.93-.4-4.15t-1.88-6.7q-1.47-3.48-4.55-6.23-3.09-2.75-8.18-2.75-5.63 0-9.24 2.35-3.62 2.34-5.77 5.56-2.14 3.21-2.94 6.56-.81 3.35-.81 5.36" transform="matrix(.97 0 0 .97 -.637 -.45)"/><path fill="url(#a)" d="M802.314 907.243v-91.39h56.01v10.32h-44.76v29.21h41.54v10.05h-41.54v31.49h46.1v10.32Z" transform="matrix(.97 0 0 .97 -.637 -.44)"/><path fill="url(#a)" d="M875.874 907.243v-54q.14-2.81-.67-12.19l9.92-1.34 1.47 8.57q4.02-2.68 7.98-4.69 3.95-2.01 8.1-3.55 4.16-1.54 8.04-1.54 5.5 0 9.18 1.27 3.69 1.28 5.96 4.22 2.28 2.95 3.29 7.78 1 4.82 1 12.06v43.41h-10.72v-42.21q0-4.02-.13-7.17-.14-3.15-1.14-5.36-1.01-2.21-3.08-3.41-2.08-1.21-5.83-1.21-3.49 0-7.37 1.54-3.89 1.54-7.64 3.55t-7.64 4.69v49.58Z" transform="matrix(.97 0 0 .97 -.637 -.45)"/><path fill="url(#a)" d="M1001.834 841.453v72.22q0 4.96-1.07 9.65t-4.09 8.38q-3.01 3.68-8.44 5.89t-14.27 2.21q-5.63-.13-9.78-.67-4.16-.53-7.91-1.54-3.75-1-6.83-2.34l2.81-9.38q5.23 2.28 10.66 3.48 5.42 1.21 9.71 1.21 4.69 0 8.17-.94 3.49-.94 5.83-3.15 2.35-2.21 3.49-5.83t1.14-8.98v-9.78q-2.82 1.88-5.83 3.42-3.02 1.54-6.43 2.61-3.42 1.07-6.64 1.07-12.46 0-19.7-8.77-7.23-8.78-7.23-26.2 0-10.05 3.15-16.82 3.15-6.76 7.97-10.92 4.82-4.15 10.59-5.96 5.76-1.81 10.98-1.81 6.84 0 12.53 1.14 5.7 1.14 11.19 1.81m-28.27 58.15q2.95 0 6.03-1.07t5.96-2.54q2.88-1.48 5.7-3.49v-42.74q-1.61-.41-3.76-.94-1.87-.27-4.28-.6-2.42-.34-5.1-.34-5.62 0-9.64 2.01t-6.64 5.49q-2.61 3.49-3.82 8.18-1.2 4.69-1.2 9.91 0 4.69 1 9.38 1.01 4.69 3.15 8.45 2.15 3.75 5.23 6.03 3.08 2.27 7.37 2.27" transform="matrix(.97 0 0 .97 -.636 -.45)"/><path fill="url(#a)" d="M1021.134 907.243v-67.53l10.72-1.21v68.74Zm-1.74-86.7q0-3.08 2.07-5.15 2.08-2.08 5.16-2.08 3.22 0 5.43 2.08 2.21 2.07 2.21 5.15 0 3.09-2.21 5.16-2.21 2.08-5.43 2.08-3.08 0-5.16-2.08-2.07-2.07-2.07-5.16" transform="matrix(.97 0 0 .97 -.637 -.45)"/><path fill="url(#a)" d="M1051.284 907.243v-54q.13-2.81-.67-12.19l9.91-1.34 1.48 8.57q4.02-2.68 7.97-4.69t8.11-3.55q4.15-1.54 8.04-1.54 5.49 0 9.18 1.27 3.68 1.28 5.96 4.22 2.28 2.95 3.28 7.78 1.01 4.82 1.01 12.06v43.41h-10.72v-42.21q0-4.02-.14-7.17-.13-3.15-1.13-5.36-1.01-2.21-3.09-3.41-2.07-1.21-5.83-1.21-3.48 0-7.37 1.54-3.88 1.54-7.63 3.55-3.76 2.01-7.64 4.69v49.58Z" transform="matrix(.97 0 0 .97 -.636 -.45)"/><path fill="url(#a)" d="m1172.284 896.663 2.01 8.97q-3.08.94-6.36 1.61-3.29.67-7.24 1.21-3.95.53-8.24.53-6.7 0-12.46-1.87-5.77-1.88-10.05-6.03-4.29-4.16-6.77-10.79t-2.48-16.28q0-8.71 2.41-15.34 2.41-6.64 6.64-11.12 4.22-4.49 9.91-6.77 5.7-2.28 12.4-2.28 6.56 0 11.39 2.55 4.82 2.54 7.97 6.9 3.15 4.35 4.69 10.18t1.54 12.26l-2.01 5.9h-43.28q0 4.15 1.07 8.31 1.07 4.15 3.69 7.5 2.61 3.35 6.83 5.43 4.22 2.07 10.52 2.07 4.02 0 7.37-.46 3.35-.47 5.83-1.08 2.48-.6 4.62-1.4m-39.53-28.95h33.77q0-.94-.4-4.15-.41-3.22-1.88-6.7-1.47-3.49-4.56-6.23-3.08-2.75-8.17-2.75-5.63 0-9.25 2.35-3.61 2.34-5.76 5.56-2.14 3.21-2.95 6.56-.8 3.35-.8 5.36" transform="matrix(.97 0 0 .97 -.627 -.45)"/><g transform="translate(491.53 138.771)scale(1.86)"><linearGradient id="b" x1="0" x2="1" y1="0" y2="0" gradientUnits="objectBoundingBox"><stop offset="0%" stop-color="#6ee2f5"/><stop offset="100%" stop-color="#6454f0"/></linearGradient><path fill="url(#b)" d="M451.77 402.737c3.3 0 6.41-1.28 8.75-3.62s3.62-5.44 3.62-8.75-1.28-6.41-3.62-8.75a12.3 12.3 0 0 0-8.75-3.62c-3.3 0-6.41 1.28-8.75 3.62a12.3 12.3 0 0 0-3.62 8.75c0 3.3 1.28 6.41 3.62 8.75a12.3 12.3 0 0 0 8.75 3.62m-5.92-18.29a8.3 8.3 0 0 1 5.92-2.45c2.24 0 4.34.87 5.92 2.45a8.3 8.3 0 0 1 2.45 5.92c0 2.24-.87 4.34-2.45 5.92a8.3 8.3 0 0 1-5.92 2.45 8.3 8.3 0 0 1-5.92-2.45 8.3 8.3 0 0 1-2.45-5.92c0-2.24.87-4.34 2.45-5.92" transform="translate(-50 -50)"/></g><g transform="translate(496.44 143.7)scale(1.86)"><linearGradient id="c" x1="0" x2="1" y1="0" y2="0" gradientUnits="objectBoundingBox"><stop offset="0%" stop-color="#6ee2f5"/><stop offset="100%" stop-color="#6454f0"/></linearGradient><path fill="url(#c)" d="M463.15 376.167a2 2 0 0 0 0 2.82c6.282 6.286 6.282 16.474 0 22.76-6.286 6.282-16.474 6.282-22.76 0a2.001 2.001 0 0 0-2.83 2.83 20 20 0 0 0 14.21 5.87 20 20 0 0 0 14.21-5.88c7.832-7.847 7.832-20.553 0-28.4a2 2 0 0 0-2.82 0" transform="translate(-52.64 -52.65)"/></g><g transform="translate(491.53 138.771)scale(1.86)"><linearGradient id="d" x1="0" x2="1" y1="0" y2="0" gradientUnits="objectBoundingBox"><stop offset="0%" stop-color="#6ee2f5"/><stop offset="100%" stop-color="#6454f0"/></linearGradient><path fill="url(#d)" d="M485.64 382.077h-7.57a27 27 0 0 0-1.84-4.45l5.35-5.35a2 2 0 0 0 0-2.83l-8.89-8.9a2 2 0 0 0-2.83 0l-5.35 5.36a27 27 0 0 0-4.45-1.84v-7.57a2 2 0 0 0-2-2h-12.59a2 2 0 0 0-2 2v7.57q-2.31.73-4.45 1.84l-5.35-5.35a2 2 0 0 0-2.83 0l-8.9 8.89a2 2 0 0 0 0 2.83l5.36 5.35a27 27 0 0 0-1.85 4.45h-7.56a2 2 0 0 0-2 2v12.59c0 1.1.9 2 2 2h7.57a27 27 0 0 0 1.84 4.45l-5.35 5.35a2 2 0 0 0 0 2.83l8.89 8.9a2 2 0 0 0 2.83 0l5.35-5.36a27 27 0 0 0 4.45 1.85v7.56c0 1.1.9 2 2 2h12.6a2 2 0 0 0 2-2v-7.56q2.31-.72 4.45-1.85l5.35 5.35a2 2 0 0 0 2.83 0l8.9-8.89a2 2 0 0 0 0-2.83l-5.36-5.35a27 27 0 0 0 1.84-4.45h7.57a2 2 0 0 0 2-2v-12.6a2 2 0 0 0-2-2m-2 12.58h-7.08a2 2 0 0 0-1.94 1.5 23 23 0 0 1-2.59 6.27 2 2 0 0 0 .3 2.44l5 5-6.05 6.07-5-5a2 2 0 0 0-2.45-.3 23 23 0 0 1-6.26 2.58 2 2 0 0 0-1.51 1.94v7.08h-8.6v-7.06a2 2 0 0 0-1.5-1.94 23 23 0 0 1-6.27-2.59 2 2 0 0 0-2.44.3l-5 5-6.07-6.05 5-5a2 2 0 0 0 .3-2.44 24 24 0 0 1-2.58-6.27 2 2 0 0 0-1.94-1.51h-7.08v-8.6h7.08a2 2 0 0 0 1.94-1.51q.84-3.33 2.59-6.26a2 2 0 0 0-.3-2.44l-5-5 6.06-6.07 5 5a2 2 0 0 0 2.44.3 23 23 0 0 1 6.26-2.58 2 2 0 0 0 1.51-1.94v-7.08h8.58v7.08a2 2 0 0 0 1.5 1.94 23 23 0 0 1 6.27 2.59 2 2 0 0 0 2.44-.3l5-5 6.07 6.05-5 5a2 2 0 0 0-.3 2.45 23 23 0 0 1 2.58 6.26 2 2 0 0 0 1.94 1.51h7.08Z" transform="translate(-50 -50)"/></g></g><path fill="transparent" stroke="transparent" stroke-width="2.683" d="M250 375.67h1500v748.66H250z"/></g></svg>