<svg xmlns="http://www.w3.org/2000/svg" xml:space="preserve" width="2000" height="1500" data-id="lg_hRHkvDkmQQPReqtZpE" data-version="1" viewBox="0 0 2000 1500"><path fill="#fff" stroke="transparent" d="M0 0h2000v1500H0z"/><g data-padding="20"><g transform="translate(-1661.29 -1257.747)scale(2.59182)"><rect width="581.65" height="72.32" x="486.595" y="679.967" fill="none" rx="0" ry="0" transform="matrix(.96 0 0 .96 280.48 139.492)"/><path fill="#001f3f" d="M785.795 845.79H770.31l-9.888-43.498h12.346l6.086 30.48 6.451-30.48h13.882l6.326 30.48 5.78-30.48h11.673l-9.706 43.498h-14.87l-6.326-29.366Zm57.024.509q-4.973 0-8.688-1.997-3.725-1.996-5.779-5.683t-2.054-8.793q0-5.098 2.083-8.938 2.093-3.84 5.837-5.99 3.753-2.15 8.726-2.15 3.562 0 6.394 1.103 2.822 1.114 4.848 3.197 2.025 2.093 3.1 5.04t1.076 6.634q0 1.046-.087 1.996-.096.95-.336 1.997h-20.89q.116 1.17.769 2.218.643 1.037 1.804 1.65 1.172.615 2.957.615 1.469 0 2.544-.336t1.757-.892q.672-.548.854-1.104h10.628q-.855 3.993-3.159 6.547-2.304 2.544-5.53 3.715-3.225 1.17-6.854 1.17m-5.587-20.65h10.934q0-.92-.518-1.928-.528-1.018-1.728-1.69-1.19-.681-3.158-.681-1.91 0-3.14.68-1.228.673-1.804 1.69-.586 1.009-.586 1.93m37.536 20.65q-2.275 0-4.3-.613-2.026-.615-3.591-1.843-1.565-1.23-2.487-3.072-.921-1.844-.921-4.368 0-3.687 1.565-5.77 1.564-2.093 4.233-3.072 2.679-.99 6.087-1.267 3.408-.27 7.094-.27h1.478q0-1.17-.556-2.092-.548-.921-1.565-1.478-1.018-.547-2.487-.547-1.046 0-2.025.307-.989.307-1.632.825-.643.528-.768 1.258h-10.81q.365-3.005 1.776-5.184 1.411-2.19 3.562-3.571t4.829-2.055q2.668-.672 5.558-.672 7.123 0 10.78 3.956 3.658 3.964 3.658 11.644V845.8h-10.012v-4.234q-1.604 2.39-3.6 3.38-1.997.979-3.62 1.16-1.632.193-2.246.193m2.947-8.294q1.536 0 2.986-.768 1.44-.768 2.39-1.94.96-1.17.96-2.332v-.25h-6.086q-.74 0-1.411.154-.682.153-1.2.46-.519.308-.826.797-.307.5-.307 1.23 0 .863.46 1.449t1.258.893 1.776.307m42.384 7.794h-2.823q-4.3 0-7.344-.922t-4.665-3.283q-1.632-2.361-1.632-6.854v-11.607h-4.483v-9.705h4.483v-8.055h10.877v8.055h5.961v9.705h-5.961v9.956q0 1.16.403 2.054.393.893 2.304.893h2.88Zm16.416-.01h-10.877v-43.498h10.877v14.074q1.536-1.603 3.322-2.371 1.776-.768 3.465-1.008 1.69-.25 2.804-.25 4.416 0 6.97 2.093 2.553 2.083 3.628 5.558 1.075 3.476 1.075 7.527v17.875h-10.876v-16.954q0-.98-.25-2.054-.24-1.075-.825-1.997t-1.565-1.507q-.988-.586-2.524-.586-1.412 0-2.43.519-1.007.528-1.622 1.45-.614.92-.892 2.054-.279 1.142-.279 2.37Zm43.795.509q-4.973 0-8.688-1.997-3.715-1.996-5.78-5.683-2.054-3.686-2.054-8.793 0-5.098 2.084-8.938 2.092-3.84 5.836-5.99 3.754-2.15 8.727-2.15 3.561 0 6.393 1.103 2.823 1.114 4.848 3.197 2.036 2.093 3.11 5.04t1.076 6.634q0 1.046-.096 1.996t-.336 1.997h-20.89q.125 1.17.768 2.218.644 1.037 1.815 1.65 1.161.615 2.947.615 1.469 0 2.544-.336t1.757-.892q.672-.548.854-1.104h10.637q-.864 3.993-3.168 6.547-2.304 2.544-5.53 3.715-3.225 1.17-6.854 1.17m-5.587-20.65h10.934q0-.92-.518-1.928-.528-1.018-1.719-1.69-1.2-.681-3.168-.681-1.9 0-3.13.68-1.228.673-1.814 1.69-.585 1.009-.585 1.93m38.227 20.14h-10.876v-32.37h9.523l.739 3.072q1.229-1.786 2.698-2.583 1.478-.796 2.956-.988 1.47-.183 2.698-.183 1.046 0 1.91.029.855.038 1.104.096v10.502h-2.092q-2.276 0-4.272.586t-3.188 2.218q-1.2 1.622-1.2 4.876Zm47.55 0h-11.118v-43.497h14.074l10.627 19.047 10.57-19.047h13.517v43.498h-11.127v-27.706l-10.992 19.104h-4.368l-11.184-19.104Zm62.121.51q-4.79 0-8.63-1.91-3.84-1.901-6.116-5.616-2.275-3.725-2.275-9.063 0-5.472 2.304-9.254 2.304-3.773 6.115-5.74 3.811-1.97 8.42-1.97 4.723 0 8.505 2.027 3.782 2.035 6.02 5.837 2.246 3.81 2.246 9.283 0 5.28-2.15 8.966t-5.905 5.559q-3.744 1.88-8.534 1.88m-.183-10.08q2.333 0 3.687-.978 1.344-.99 1.9-2.496.557-1.498.557-2.976t-.556-3.072-1.872-2.707q-1.325-1.104-3.716-1.104-2.342 0-3.724 1.104-1.383 1.113-1.93 2.678-.557 1.565-.557 3.1t.586 3.044 1.939 2.458q1.344.95 3.686.95m33.84 9.57h-10.877v-32.37h10.013l.614 2.947q1.536-1.603 3.293-2.371 1.747-.768 3.408-1.008 1.661-.25 2.823-.25 4.55 0 7.161 2.093 2.611 2.083 3.715 5.53 1.104 3.436 1.104 7.555v17.875h-10.867v-16.954q0-.98-.22-2.054-.212-1.075-.74-1.997-.518-.921-1.44-1.507t-2.4-.586q-1.9 0-3.158.864-1.258.855-1.843 2.304-.586 1.44-.586 3.226Zm39.389 0H1184.8v-32.37h10.867Zm-5.405-34.588q-2.947 0-4.761-1.747-1.815-1.757-1.815-4.58 0-2.89 1.91-4.732 1.902-1.843 4.734-1.843 2.697 0 4.608 1.757 1.9 1.747 1.9 4.76 0 2.88-1.814 4.638-1.814 1.747-4.762 1.747m31.392 34.599h-2.832q-4.3 0-7.344-.922-3.034-.921-4.666-3.283t-1.632-6.854v-11.607h-4.483v-9.705h4.483v-8.055h10.877v8.055h5.962v9.705h-5.962v9.956q0 1.16.403 2.054.394.893 2.304.893h2.89Zm21.322.499q-4.79 0-8.63-1.91-3.84-1.901-6.116-5.616-2.265-3.725-2.265-9.063 0-5.472 2.304-9.254 2.304-3.773 6.105-5.74 3.812-1.97 8.42-1.97 4.732 0 8.515 2.027 3.773 2.035 6.019 5.837 2.237 3.81 2.237 9.283 0 5.28-2.15 8.966t-5.895 5.559q-3.744 1.88-8.544 1.88m-.182-10.08q2.332 0 3.686-.978 1.354-.99 1.91-2.496.548-1.498.548-2.976t-.548-3.072q-.556-1.594-1.881-2.707-1.315-1.104-3.715-1.104-2.333 0-3.716 1.104-1.382 1.113-1.939 2.678-.547 1.565-.547 3.1t.586 3.044q.576 1.507 1.93 2.458 1.353.95 3.686.95m33.859 9.57h-10.877v-32.37h9.523l.74 3.072q1.228-1.786 2.697-2.583 1.478-.796 2.947-.988 1.479-.183 2.707-.183 1.047 0 1.901.029.864.038 1.114.096v10.502h-2.093q-2.275 0-4.272.586t-3.197 2.218q-1.19 1.622-1.19 4.876Z"/><path fill="#ff5630" d="M988.515 757.598a3.63 3.63 0 0 1-1.065-7.103c16.214-4.961 32.646-6.486 50.034-4.598l-14.666-37.462c-3.581-9.147-32.452-4.138-41.938-2.492l-2.275.387a3.632 3.632 0 1 1-1.21-7.163l2.25-.375c14.34-2.493 44.19-7.66 49.925 6.994l16.904 43.16a3.63 3.63 0 0 1-3.92 4.913c-18.586-2.807-35.913-1.646-52.974 3.58q-.545.147-1.065.159"/><path fill="#ff5630" d="M1024.439 770.605a3.63 3.63 0 0 1-2.42-6.34l18.634-16.698a3.63 3.63 0 0 1 4.852 5.396l-8.809 7.902q9.245-1.307 18.537-1.186 9.063.12 18.501 1.573l-12.85-38.08c-1.04-3.084-6.546-7.9-31.702-5.625a3.633 3.633 0 0 1-.653-7.236c14.859-1.331 35.09-1.706 39.228 10.527l14.81 43.923a3.63 3.63 0 0 1-4.162 4.719 127 127 0 0 0-23.268-2.541 113.7 113.7 0 0 0-29.815 3.557q-.447.12-.883.12"/><path fill="#ff5630" d="M1024.452 770.629a3.63 3.63 0 0 1-3.352-2.214l-7.647-18.065a3.633 3.633 0 1 1 6.691-2.832l7.648 18.066a3.63 3.63 0 0 1-3.34 5.045m-29.016 15.694a3.63 3.63 0 0 1-3.533-2.747l-22.99-91.258a3.63 3.63 0 1 1 7.03-1.766l23.014 91.258a3.63 3.63 0 0 1-3.52 4.513"/></g><path fill="transparent" stroke="transparent" stroke-width="2.688" d="M250 516.129h1500v467.742H250z"/></g></svg>